# Blender v2.93.1 OBJ File: ''
# www.blender.org
mtllib box.mtl
o Cube_Cube.002
v 0.656483 -1.133756 1.132972
v -0.482359 0.441451 1.603886
v -0.589863 -1.587316 -0.363993
v -1.728705 -0.012108 0.106920
v 1.728705 0.012108 -0.106920
v 0.589863 1.587316 0.363993
v 0.482359 -0.441451 -1.603886
v -0.656483 1.133756 -1.132972
vt 0.625000 0.000000
vt 0.375000 0.250000
vt 0.375000 0.000000
vt 0.625000 0.250000
vt 0.375000 0.500000
vt 0.625000 0.500000
vt 0.375000 0.750000
vt 0.625000 0.750000
vt 0.375000 1.000000
vt 0.125000 0.750000
vt 0.125000 0.500000
vt 0.875000 0.500000
vt 0.625000 1.000000
vt 0.875000 0.750000
vn -0.2785 0.2549 0.9260
vn -0.3406 -0.9164 -0.2102
vn 0.3790 -0.6546 0.6541
vn -0.9980 -0.0070 0.0617
vn 0.2785 -0.2549 -0.9260
vn -0.3790 0.6546 -0.6541
vn 0.9980 0.0070 -0.0617
vn 0.3406 0.9164 0.2102
usemtl None
s 1
f 2/1/1 3/2/2 1/3/3
f 4/4/4 7/5/5 3/2/2
f 8/6/6 5/7/7 7/5/5
f 6/8/8 1/9/3 5/7/7
f 7/5/5 1/10/3 3/11/2
f 4/12/4 6/8/8 8/6/6
f 2/1/1 4/4/4 3/2/2
f 4/4/4 8/6/6 7/5/5
f 8/6/6 6/8/8 5/7/7
f 6/8/8 2/13/1 1/9/3
f 7/5/5 5/7/7 1/10/3
f 4/12/4 2/14/1 6/8/8
