# Blender v2.93.1 OBJ File: ''
# www.blender.org
mtllib torus.mtl
o Torus
v 1.290332 -1.367488 0.273898
v 1.377465 -1.044557 0.459828
v 1.214646 -0.699990 0.494621
v 0.897253 -0.535631 0.357894
v 0.611210 -0.647757 0.129741
v 0.524077 -0.970688 -0.056189
v 0.686896 -1.315255 -0.090981
v 1.004289 -1.479615 0.045745
v 1.563055 -1.029547 -0.326941
v 1.629167 -0.732664 -0.094700
v 1.415600 -0.450981 0.051897
v 1.047458 -0.349506 0.026975
v 0.740395 -0.487680 -0.154867
v 0.674283 -0.784564 -0.387108
v 0.887850 -1.066246 -0.533705
v 1.255992 -1.167722 -0.508783
v 1.597818 -0.534867 -0.878006
v 1.661250 -0.276112 -0.603291
v 1.441214 -0.086480 -0.354151
v 1.066604 -0.077055 -0.276530
v 0.756861 -0.253358 -0.415898
v 0.693429 -0.512113 -0.690614
v 0.913465 -0.701745 -0.939753
v 1.288075 -0.711170 -1.017374
v 1.389327 0.041241 -1.295403
v 1.468829 0.255592 -0.988515
v 1.287589 0.338021 -0.661706
v 0.951775 0.240243 -0.506416
v 0.658102 0.019535 -0.613612
v 0.578600 -0.194815 -0.920500
v 0.759840 -0.277244 -1.247308
v 1.095654 -0.179466 -1.402599
v 0.969324 0.611072 -1.515587
v 1.081199 0.781501 -1.191728
v 0.978113 0.757896 -0.823947
v 0.720454 0.554084 -0.627685
v 0.459153 0.289455 -0.717909
v 0.347278 0.119026 -1.041768
v 0.450364 0.142631 -1.409549
v 0.708023 0.346443 -1.605811
v 0.401749 1.087872 -1.505036
v 0.557371 1.221551 -1.181990
v 0.559901 1.109222 -0.816173
v 0.407856 0.816687 -0.621874
v 0.190302 0.515308 -0.712912
v 0.034681 0.381629 -1.035957
v 0.032151 0.493957 -1.401775
v 0.184196 0.786493 -1.596073
v -0.226988 1.399053 -1.265357
v -0.022905 1.508747 -0.960785
v 0.096621 1.338514 -0.639567
v 0.061572 0.988073 -0.489868
v -0.107520 0.662709 -0.599379
v -0.311604 0.553015 -0.903951
v -0.431129 0.723249 -1.225169
v -0.396080 1.073689 -1.374868
v -0.821167 1.497241 -0.833039
v -0.571286 1.599367 -0.561789
v -0.341196 1.410863 -0.321017
v -0.265680 1.042151 -0.251764
v -0.388974 0.709219 -0.394597
v -0.638855 0.607094 -0.665847
v -0.868945 0.795598 -0.906619
v -0.944461 1.164309 -0.975872
v -1.290332 1.367488 -0.273898
v -1.004289 1.479615 -0.045745
v -0.686896 1.315255 0.090981
v -0.524077 0.970688 0.056189
v -0.611210 0.647757 -0.129741
v -0.897253 0.535631 -0.357894
v -1.214646 0.699990 -0.494621
v -1.377464 1.044557 -0.459829
v -1.563055 1.029547 0.326940
v -1.255992 1.167722 0.508782
v -0.887850 1.066246 0.533705
v -0.674283 0.784564 0.387108
v -0.740395 0.487680 0.154867
v -1.047458 0.349506 -0.026975
v -1.415600 0.450981 -0.051898
v -1.629167 0.732664 0.094699
v -1.597818 0.534867 0.878006
v -1.288075 0.711170 1.017373
v -0.913465 0.701745 0.939753
v -0.693429 0.512113 0.690613
v -0.756861 0.253358 0.415898
v -1.066604 0.077055 0.276530
v -1.441214 0.086480 0.354151
v -1.661250 0.276112 0.603290
v -1.389327 -0.041242 1.295403
v -1.095654 0.179466 1.402599
v -0.759840 0.277244 1.247308
v -0.578600 0.194815 0.920500
v -0.658102 -0.019535 0.613612
v -0.951775 -0.240243 0.506416
v -1.287589 -0.338021 0.661706
v -1.468829 -0.255592 0.988515
v -0.969324 -0.611072 1.515587
v -0.708023 -0.346443 1.605811
v -0.450364 -0.142631 1.409549
v -0.347278 -0.119026 1.041768
v -0.459153 -0.289455 0.717909
v -0.720454 -0.554084 0.627685
v -0.978113 -0.757896 0.823947
v -1.081198 -0.781501 1.191728
v -0.401749 -1.087872 1.505036
v -0.184196 -0.786493 1.596073
v -0.032151 -0.493957 1.401775
v -0.034680 -0.381629 1.035957
v -0.190302 -0.515308 0.712912
v -0.407856 -0.816687 0.621874
v -0.559900 -1.109222 0.816173
v -0.557371 -1.221551 1.181990
v 0.226986 -1.399053 1.265357
v 0.396078 -1.073689 1.374869
v 0.431128 -0.723249 1.225170
v 0.311603 -0.553015 0.903952
v 0.107520 -0.662709 0.599380
v -0.061572 -0.988073 0.489868
v -0.096622 -1.338513 0.639567
v 0.022903 -1.508747 0.960786
v 0.821167 -1.497241 0.833039
v 0.944461 -1.164309 0.975873
v 0.868945 -0.795598 0.906619
v 0.638854 -0.607094 0.665847
v 0.388974 -0.709219 0.394598
v 0.265679 -1.042151 0.251764
v 0.341196 -1.410863 0.321017
v 0.571286 -1.599367 0.561789
vt 0.562500 0.500000
vt 0.500000 0.625000
vt 0.500000 0.500000
vt 0.562500 0.625000
vt 0.500000 0.750000
vt 0.562500 0.750000
vt 0.500000 0.875000
vt 0.562500 0.875000
vt 0.500000 1.000000
vt 0.562500 0.000000
vt 0.500000 0.125000
vt 0.500000 0.000000
vt 0.562500 0.250000
vt 0.500000 0.250000
vt 0.562500 0.375000
vt 0.500000 0.375000
vt 0.625000 0.500000
vt 0.625000 0.625000
vt 0.625000 0.750000
vt 0.625000 1.000000
vt 0.562500 1.000000
vt 0.625000 0.000000
vt 0.562500 0.125000
vt 0.625000 0.125000
vt 0.625000 0.250000
vt 0.625000 0.375000
vt 0.687500 0.500000
vt 0.687500 0.750000
vt 0.625000 0.875000
vt 0.687500 0.875000
vt 0.687500 0.000000
vt 0.687500 0.125000
vt 0.687500 0.250000
vt 0.750000 0.500000
vt 0.687500 0.625000
vt 0.750000 0.750000
vt 0.750000 1.000000
vt 0.687500 1.000000
vt 0.750000 0.000000
vt 0.750000 0.250000
vt 0.687500 0.375000
vt 0.750000 0.375000
vt 0.812500 0.500000
vt 0.750000 0.625000
vt 0.812500 0.750000
vt 0.750000 0.875000
vt 0.812500 0.875000
vt 0.812500 0.125000
vt 0.750000 0.125000
vt 0.812500 0.250000
vt 0.812500 0.375000
vt 0.875000 0.500000
vt 0.812500 0.625000
vt 0.875000 0.625000
vt 0.875000 0.750000
vt 0.875000 0.875000
vt 0.812500 1.000000
vt 0.812500 0.000000
vt 0.875000 0.125000
vt 0.875000 0.250000
vt 0.875000 0.375000
vt 0.937500 0.500000
vt 0.937500 0.625000
vt 0.937500 0.875000
vt 0.937500 1.000000
vt 0.875000 1.000000
vt 0.937500 0.000000
vt 0.875000 0.000000
vt 0.937500 0.125000
vt 0.937500 0.250000
vt 0.937500 0.375000
vt 1.000000 0.625000
vt 0.937500 0.750000
vt 1.000000 0.750000
vt 1.000000 1.000000
vt 1.000000 0.000000
vt 1.000000 0.250000
vt 1.000000 0.375000
vt 0.062500 0.500000
vt 0.000000 0.625000
vt 0.000000 0.500000
vt 0.062500 0.625000
vt 0.000000 0.750000
vt 0.062500 0.750000
vt 0.000000 0.875000
vt 0.062500 0.875000
vt 0.000000 1.000000
vt 0.062500 0.000000
vt 0.000000 0.125000
vt 0.000000 0.000000
vt 0.062500 0.125000
vt 0.000000 0.250000
vt 0.062500 0.250000
vt 0.000000 0.375000
vt 0.062500 0.375000
vt 0.125000 0.625000
vt 0.125000 0.750000
vt 0.125000 0.875000
vt 0.062500 1.000000
vt 0.125000 0.125000
vt 0.125000 0.375000
vt 0.125000 0.500000
vt 0.187500 0.625000
vt 0.187500 0.750000
vt 0.187500 1.000000
vt 0.125000 1.000000
vt 0.187500 0.000000
vt 0.125000 0.000000
vt 0.187500 0.125000
vt 0.125000 0.250000
vt 0.187500 0.250000
vt 0.187500 0.375000
vt 0.250000 0.500000
vt 0.187500 0.500000
vt 0.250000 0.625000
vt 0.250000 0.750000
vt 0.187500 0.875000
vt 0.250000 1.000000
vt 0.250000 0.125000
vt 0.250000 0.250000
vt 0.312500 0.500000
vt 0.312500 0.625000
vt 0.312500 0.750000
vt 0.250000 0.875000
vt 0.312500 0.875000
vt 0.250000 0.000000
vt 0.312500 0.125000
vt 0.312500 0.375000
vt 0.250000 0.375000
vt 0.375000 0.500000
vt 0.375000 0.625000
vt 0.375000 0.875000
vt 0.312500 1.000000
vt 0.375000 0.000000
vt 0.312500 0.000000
vt 0.375000 0.125000
vt 0.312500 0.250000
vt 0.375000 0.250000
vt 0.437500 0.500000
vt 0.437500 0.625000
vt 0.375000 0.750000
vt 0.437500 0.875000
vt 0.375000 1.000000
vt 0.437500 0.000000
vt 0.437500 0.125000
vt 0.437500 0.375000
vt 0.375000 0.375000
vt 0.437500 0.750000
vt 0.437500 1.000000
vt 0.437500 0.250000
vt 1.000000 0.500000
vt 1.000000 0.875000
vt 1.000000 0.125000
vn 0.8227 -0.5419 -0.1721
vn 0.8564 -0.1041 0.5057
vn 0.6791 -0.7197 0.1441
vn 0.9611 0.0256 0.2751
vn 0.5596 0.5802 0.5918
vn 0.5664 0.5887 0.5767
vn -0.0767 0.9408 0.3302
vn -0.1745 0.8195 0.5458
vn -0.6791 0.7197 -0.1441
vn -0.8227 0.5419 0.1721
vn -0.8491 0.0403 -0.5267
vn -0.4879 -0.6404 -0.5931
vn -0.4947 -0.6489 -0.5781
vn 0.2391 -0.8161 -0.5261
vn 0.1343 -0.9459 -0.2954
vn 0.8409 -0.2815 -0.4621
vn 0.9744 0.2155 0.0635
vn 0.5673 0.6011 0.5629
vn -0.8409 0.2815 0.4621
vn -0.9469 -0.0808 -0.3112
vn -0.9593 -0.2583 -0.1135
vn -0.4870 -0.6280 -0.6070
vn 0.2524 -0.6262 -0.7376
vn 0.7312 0.0217 -0.6818
vn 0.5620 0.6156 0.5524
vn -0.1870 0.6421 0.7435
vn -0.1122 0.4354 0.8932
vn -0.7312 -0.0217 0.6818
vn -0.8845 -0.4650 0.0362
vn -0.4922 -0.6135 -0.6175
vn 0.5101 0.3216 -0.7977
vn 0.8944 0.4367 -0.0967
vn 0.5515 0.6299 0.5468
vn -0.5101 -0.3216 0.7977
vn -0.5028 -0.5992 -0.6230
vn 0.1724 -0.4050 -0.8979
vn 0.0111 -0.1863 -0.9824
vn 0.2114 0.5726 -0.7921
vn 0.7331 0.6554 -0.1812
vn 0.5372 0.6419 0.5471
vn 0.0384 0.2310 0.9722
vn 0.2420 0.0599 0.9684
vn -0.5303 -0.8404 0.1114
vn -0.7339 -0.6694 0.1152
vn -0.5170 -0.5872 -0.6227
vn -0.2068 -0.0032 -0.9784
vn -0.1194 0.7363 -0.6660
vn 0.5152 0.8385 -0.1772
vn 0.2738 0.9580 -0.0852
vn 0.5214 0.6497 0.5531
vn 0.4676 -0.0517 0.8824
vn -0.2114 -0.5726 0.7921
vn -0.3047 -0.9521 0.0254
vn -0.5328 -0.5794 -0.6167
vn -0.4481 0.1162 -0.8863
vn -0.4322 0.7880 -0.4384
vn 0.0457 0.9957 0.0808
vn 0.6807 -0.0869 0.7273
vn 0.4322 -0.7880 0.4384
vn 0.1194 -0.7363 0.6660
vn -0.0916 -0.9873 -0.1296
vn -0.5478 -0.5769 -0.6059
vn -0.6763 0.1539 -0.7204
vn -0.1343 0.9459 0.2954
vn 0.5065 0.6522 0.5640
vn 0.4947 0.6489 0.5781
vn -0.5596 -0.5802 -0.5918
vn -0.8564 0.1041 -0.5057
vn -0.2391 0.8161 0.5261
vn 0.4879 0.6404 0.5931
vn 0.8491 -0.0403 0.5267
vn 0.9469 0.0808 0.3112
vn 0.0767 -0.9408 -0.3302
vn 0.1745 -0.8195 -0.5458
vn -0.5664 -0.5887 -0.5767
vn -0.9611 -0.0256 -0.2751
vn -0.2524 0.6262 0.7376
vn 0.4870 0.6280 0.6070
vn 0.9593 0.2583 0.1135
vn 0.1870 -0.6421 -0.7435
vn -0.9744 -0.2155 -0.0635
vn -0.1724 0.4050 0.8979
vn 0.4922 0.6135 0.6175
vn 0.1122 -0.4354 -0.8932
vn -0.5673 -0.6011 -0.5629
vn -0.5620 -0.6156 -0.5524
vn -0.8944 -0.4367 0.0967
vn -0.0111 0.1863 0.9824
vn 0.5028 0.5992 0.6230
vn 0.8845 0.4650 -0.0362
vn -0.0384 -0.2310 -0.9722
vn -0.5515 -0.6299 -0.5468
vn 0.2068 0.0032 0.9784
vn 0.5170 0.5872 0.6227
vn 0.7339 0.6694 -0.1152
vn 0.5303 0.8404 -0.1114
vn -0.2420 -0.0599 -0.9684
vn -0.5152 -0.8385 0.1772
vn -0.7331 -0.6554 0.1812
vn 0.4481 -0.1162 0.8863
vn 0.3047 0.9521 -0.0254
vn -0.4676 0.0517 -0.8824
vn -0.5372 -0.6419 -0.5471
vn -0.5214 -0.6497 -0.5531
vn 0.6763 -0.1539 0.7204
vn 0.5328 0.5794 0.6167
vn 0.0916 0.9873 0.1296
vn -0.6807 0.0869 -0.7273
vn -0.0457 -0.9957 -0.0808
vn -0.2738 -0.9580 0.0852
vn 0.5478 0.5769 0.6059
vn -0.5065 -0.6522 -0.5640
usemtl None
s 1
f 9/1/1 2/2/2 1/3/3
f 10/4/4 3/5/5 2/2/2
f 11/6/6 4/7/7 3/5/5
f 12/8/8 5/9/9 4/7/7
f 13/10/10 6/11/11 5/12/9
f 6/11/11 15/13/12 7/14/13
f 7/14/13 16/15/14 8/16/15
f 16/15/14 1/3/3 8/16/15
f 17/17/16 10/4/4 9/1/1
f 18/18/17 11/6/6 10/4/4
f 19/19/18 12/8/8 11/6/6
f 12/8/8 21/20/19 13/21/10
f 21/22/19 14/23/20 13/10/10
f 22/24/21 15/13/12 14/23/20
f 23/25/22 16/15/14 15/13/12
f 24/26/23 9/1/1 16/15/14
f 25/27/24 18/18/17 17/17/16
f 18/18/17 27/28/25 19/19/18
f 27/28/25 20/29/26 19/19/18
f 28/30/27 21/20/19 20/29/26
f 29/31/28 22/24/21 21/22/19
f 30/32/29 23/25/22 22/24/21
f 31/33/30 24/26/23 23/25/22
f 24/26/23 25/27/24 17/17/16
f 33/34/31 26/35/32 25/27/24
f 26/35/32 35/36/33 27/28/25
f 35/36/33 28/30/27 27/28/25
f 28/30/27 37/37/34 29/38/28
f 37/39/34 30/32/29 29/31/28
f 30/32/29 39/40/35 31/33/30
f 39/40/35 32/41/36 31/33/30
f 40/42/37 25/27/24 32/41/36
f 41/43/38 34/44/39 33/34/31
f 34/44/39 43/45/40 35/36/33
f 43/45/40 36/46/41 35/36/33
f 44/47/42 37/37/34 36/46/41
f 37/39/34 46/48/43 38/49/44
f 46/48/43 39/40/35 38/49/44
f 47/50/45 40/42/37 39/40/35
f 48/51/46 33/34/31 40/42/37
f 49/52/47 42/53/48 41/43/38
f 50/54/49 43/45/40 42/53/48
f 51/55/50 44/47/42 43/45/40
f 52/56/51 45/57/52 44/47/42
f 45/58/52 54/59/53 46/48/43
f 54/59/53 47/50/45 46/48/43
f 55/60/54 48/51/46 47/50/45
f 56/61/55 41/43/38 48/51/46
f 57/62/56 50/54/49 49/52/47
f 58/63/57 51/55/50 50/54/49
f 51/55/50 60/64/58 52/56/51
f 52/56/51 61/65/59 53/66/60
f 61/67/59 54/59/53 53/68/60
f 62/69/61 55/60/54 54/59/53
f 63/70/62 56/61/55 55/60/54
f 64/71/63 49/52/47 56/61/55
f 57/62/56 66/72/64 58/63/57
f 66/72/64 59/73/65 58/63/57
f 67/74/66 60/64/58 59/73/65
f 60/64/58 69/75/3 61/65/59
f 69/76/3 62/69/61 61/67/59
f 62/69/61 71/77/67 63/70/62
f 71/77/67 64/71/63 63/70/62
f 72/78/68 57/62/56 64/71/63
f 73/79/10 66/80/64 65/81/9
f 74/82/69 67/83/66 66/80/64
f 75/84/70 68/85/71 67/83/66
f 76/86/72 69/87/3 68/85/71
f 77/88/1 70/89/73 69/90/3
f 78/91/74 71/92/67 70/89/73
f 79/93/75 72/94/68 71/92/67
f 80/95/76 65/81/9 72/94/68
f 73/79/10 82/96/77 74/82/69
f 82/96/77 75/84/70 74/82/69
f 83/97/78 76/86/72 75/84/70
f 84/98/79 77/99/1 76/86/72
f 77/88/1 86/100/80 78/91/74
f 86/100/80 79/93/75 78/91/74
f 79/93/75 88/101/81 80/95/76
f 88/101/81 73/79/10 80/95/76
f 81/102/19 90/103/82 82/96/77
f 90/103/82 83/97/78 82/96/77
f 91/104/83 84/98/79 83/97/78
f 84/98/79 93/105/24 85/106/16
f 93/107/24 86/100/80 85/108/16
f 94/109/84 87/110/85 86/100/80
f 95/111/86 88/101/81 87/110/85
f 96/112/87 81/102/19 88/101/81
f 97/113/34 90/103/82 89/114/28
f 98/115/88 91/104/83 90/103/82
f 99/116/89 92/117/90 91/104/83
f 92/117/90 101/118/31 93/105/24
f 93/107/24 102/119/91 94/109/84
f 102/119/91 95/111/86 94/109/84
f 103/120/92 96/112/87 95/111/86
f 96/112/87 97/113/34 89/114/28
f 105/121/52 98/115/88 97/113/34
f 106/122/93 99/116/89 98/115/88
f 107/123/94 100/124/95 99/116/89
f 108/125/96 101/118/31 100/124/95
f 101/126/31 110/127/97 102/119/91
f 110/127/97 103/120/92 102/119/91
f 103/120/92 112/128/98 104/129/99
f 112/128/98 97/113/34 104/129/99
f 113/130/60 106/122/93 105/121/52
f 114/131/100 107/123/94 106/122/93
f 107/123/94 116/132/101 108/125/96
f 116/132/101 109/133/38 108/125/96
f 117/134/47 110/127/97 109/135/38
f 118/136/102 111/137/103 110/127/97
f 119/138/104 112/128/98 111/137/103
f 112/128/98 113/130/60 105/121/52
f 121/139/59 114/131/100 113/130/60
f 122/140/105 115/141/106 114/131/100
f 115/141/106 124/142/107 116/132/101
f 124/142/107 117/143/47 116/132/101
f 125/144/56 118/136/102 117/134/47
f 126/145/108 119/138/104 118/136/102
f 119/138/104 128/146/109 120/147/110
f 128/146/109 113/130/60 120/147/110
f 1/3/3 122/140/105 121/139/59
f 2/2/2 123/148/111 122/140/105
f 3/5/5 124/142/107 123/148/111
f 4/7/7 125/149/56 124/142/107
f 5/12/9 126/145/108 125/144/56
f 6/11/11 127/150/112 126/145/108
f 127/150/112 8/16/15 128/146/109
f 8/16/15 121/139/59 128/146/109
f 9/1/1 10/4/4 2/2/2
f 10/4/4 11/6/6 3/5/5
f 11/6/6 12/8/8 4/7/7
f 12/8/8 13/21/10 5/9/9
f 13/10/10 14/23/20 6/11/11
f 6/11/11 14/23/20 15/13/12
f 7/14/13 15/13/12 16/15/14
f 16/15/14 9/1/1 1/3/3
f 17/17/16 18/18/17 10/4/4
f 18/18/17 19/19/18 11/6/6
f 19/19/18 20/29/26 12/8/8
f 12/8/8 20/29/26 21/20/19
f 21/22/19 22/24/21 14/23/20
f 22/24/21 23/25/22 15/13/12
f 23/25/22 24/26/23 16/15/14
f 24/26/23 17/17/16 9/1/1
f 25/27/24 26/35/32 18/18/17
f 18/18/17 26/35/32 27/28/25
f 27/28/25 28/30/27 20/29/26
f 28/30/27 29/38/28 21/20/19
f 29/31/28 30/32/29 22/24/21
f 30/32/29 31/33/30 23/25/22
f 31/33/30 32/41/36 24/26/23
f 24/26/23 32/41/36 25/27/24
f 33/34/31 34/44/39 26/35/32
f 26/35/32 34/44/39 35/36/33
f 35/36/33 36/46/41 28/30/27
f 28/30/27 36/46/41 37/37/34
f 37/39/34 38/49/44 30/32/29
f 30/32/29 38/49/44 39/40/35
f 39/40/35 40/42/37 32/41/36
f 40/42/37 33/34/31 25/27/24
f 41/43/38 42/53/48 34/44/39
f 34/44/39 42/53/48 43/45/40
f 43/45/40 44/47/42 36/46/41
f 44/47/42 45/57/52 37/37/34
f 37/39/34 45/58/52 46/48/43
f 46/48/43 47/50/45 39/40/35
f 47/50/45 48/51/46 40/42/37
f 48/51/46 41/43/38 33/34/31
f 49/52/47 50/54/49 42/53/48
f 50/54/49 51/55/50 43/45/40
f 51/55/50 52/56/51 44/47/42
f 52/56/51 53/66/60 45/57/52
f 45/58/52 53/68/60 54/59/53
f 54/59/53 55/60/54 47/50/45
f 55/60/54 56/61/55 48/51/46
f 56/61/55 49/52/47 41/43/38
f 57/62/56 58/63/57 50/54/49
f 58/63/57 59/73/65 51/55/50
f 51/55/50 59/73/65 60/64/58
f 52/56/51 60/64/58 61/65/59
f 61/67/59 62/69/61 54/59/53
f 62/69/61 63/70/62 55/60/54
f 63/70/62 64/71/63 56/61/55
f 64/71/63 57/62/56 49/52/47
f 57/62/56 65/151/9 66/72/64
f 66/72/64 67/74/66 59/73/65
f 67/74/66 68/152/71 60/64/58
f 60/64/58 68/152/71 69/75/3
f 69/76/3 70/153/73 62/69/61
f 62/69/61 70/153/73 71/77/67
f 71/77/67 72/78/68 64/71/63
f 72/78/68 65/151/9 57/62/56
f 73/79/10 74/82/69 66/80/64
f 74/82/69 75/84/70 67/83/66
f 75/84/70 76/86/72 68/85/71
f 76/86/72 77/99/1 69/87/3
f 77/88/1 78/91/74 70/89/73
f 78/91/74 79/93/75 71/92/67
f 79/93/75 80/95/76 72/94/68
f 80/95/76 73/79/10 65/81/9
f 73/79/10 81/102/19 82/96/77
f 82/96/77 83/97/78 75/84/70
f 83/97/78 84/98/79 76/86/72
f 84/98/79 85/106/16 77/99/1
f 77/88/1 85/108/16 86/100/80
f 86/100/80 87/110/85 79/93/75
f 79/93/75 87/110/85 88/101/81
f 88/101/81 81/102/19 73/79/10
f 81/102/19 89/114/28 90/103/82
f 90/103/82 91/104/83 83/97/78
f 91/104/83 92/117/90 84/98/79
f 84/98/79 92/117/90 93/105/24
f 93/107/24 94/109/84 86/100/80
f 94/109/84 95/111/86 87/110/85
f 95/111/86 96/112/87 88/101/81
f 96/112/87 89/114/28 81/102/19
f 97/113/34 98/115/88 90/103/82
f 98/115/88 99/116/89 91/104/83
f 99/116/89 100/124/95 92/117/90
f 92/117/90 100/124/95 101/118/31
f 93/107/24 101/126/31 102/119/91
f 102/119/91 103/120/92 95/111/86
f 103/120/92 104/129/99 96/112/87
f 96/112/87 104/129/99 97/113/34
f 105/121/52 106/122/93 98/115/88
f 106/122/93 107/123/94 99/116/89
f 107/123/94 108/125/96 100/124/95
f 108/125/96 109/133/38 101/118/31
f 101/126/31 109/135/38 110/127/97
f 110/127/97 111/137/103 103/120/92
f 103/120/92 111/137/103 112/128/98
f 112/128/98 105/121/52 97/113/34
f 113/130/60 114/131/100 106/122/93
f 114/131/100 115/141/106 107/123/94
f 107/123/94 115/141/106 116/132/101
f 116/132/101 117/143/47 109/133/38
f 117/134/47 118/136/102 110/127/97
f 118/136/102 119/138/104 111/137/103
f 119/138/104 120/147/110 112/128/98
f 112/128/98 120/147/110 113/130/60
f 121/139/59 122/140/105 114/131/100
f 122/140/105 123/148/111 115/141/106
f 115/141/106 123/148/111 124/142/107
f 124/142/107 125/149/56 117/143/47
f 125/144/56 126/145/108 118/136/102
f 126/145/108 127/150/112 119/138/104
f 119/138/104 127/150/112 128/146/109
f 128/146/109 121/139/59 113/130/60
f 1/3/3 2/2/2 122/140/105
f 2/2/2 3/5/5 123/148/111
f 3/5/5 4/7/7 124/142/107
f 4/7/7 5/9/9 125/149/56
f 5/12/9 6/11/11 126/145/108
f 6/11/11 7/14/13 127/150/112
f 127/150/112 7/14/13 8/16/15
f 8/16/15 1/3/3 121/139/59
