{
	"asset":{
		"generator":"Khronos glTF Blender I/O v3.5.30",
		"version":"2.0"
	},
	"scene":0,
	"scenes":[
		{
			"name":"Scene",
			"nodes":[
				0
			]
		}
	],
	"nodes":[
		{
			"mesh":0,
			"name":"Landscape"
		}
	],
	"meshes":[
		{
			"name":"Landscape",
			"primitives":[
				{
					"attributes":{
						"POSITION":0,
						"TEXCOORD_0":1,
						"NORMAL":2
					},
					"indices":3
				}
			]
		}
	],
	"accessors":[
		{
			"bufferView":0,
			"componentType":5126,
			"count":65536,
			"max":[
				8,
				0.7510361671447754,
				8
			],
			"min":[
				-8,
				0,
				-8
			],
			"type":"VEC3"
		},
		{
			"bufferView":1,
			"componentType":5126,
			"count":65536,
			"type":"VEC2"
		},
		{
			"bufferView":2,
			"componentType":5126,
			"count":65536,
			"type":"VEC3"
		},
		{
			"bufferView":3,
			"componentType":5125,
			"count":390150,
			"type":"SCALAR"
		}
	],
	"bufferViews":[
		{
			"buffer":0,
			"byteLength":786432,
			"byteOffset":0,
			"target":34962
		},
		{
			"buffer":0,
			"byteLength":524288,
			"byteOffset":786432,
			"target":34962
		},
		{
			"buffer":0,
			"byteLength":786432,
			"byteOffset":1310720,
			"target":34962
		},
		{
			"buffer":0,
			"byteLength":1560600,
			"byteOffset":2097152,
			"target":34963
		}
	],
	"buffers":[
		{
			"byteLength":3657752,
			"uri":"terrain.bin"
		}
	]
}
